<?xml version="1.0"?>
<!-- Created with Inkscape (http://www.inkscape.org/) -->
<svg xmlns:dc="http://purl.org/dc/elements/1.1/" xmlns:cc="http://creativecommons.org/ns#" xmlns:rdf="http://www.w3.org/1999/02/22-rdf-syntax-ns#" xmlns:svg="http://www.w3.org/2000/svg" xmlns="http://www.w3.org/2000/svg" xmlns:sodipodi="http://sodipodi.sourceforge.net/DTD/sodipodi-0.dtd" xmlns:inkscape="http://www.inkscape.org/namespaces/inkscape" id="svg2985" version="1.1" inkscape:version="0.48.0 r9654" width="777" height="493" sodipodi:docname="subject.svg" inkscape:dataloss="true">
  <metadata id="metadata2991">
    <rdf:RDF>
      <cc:Work rdf:about="">
        <dc:format>image/svg+xml</dc:format>
        <dc:type rdf:resource="http://purl.org/dc/dcmitype/StillImage"/>
        <dc:title/>
      </cc:Work>
    </rdf:RDF>
  </metadata>
  <defs id="defs2989"/>
  <sodipodi:namedview pagecolor="#ffffff" bordercolor="#666666" borderopacity="1" objecttolerance="10" gridtolerance="10" guidetolerance="10" inkscape:pageopacity="0" inkscape:pageshadow="2" inkscape:window-width="1280" inkscape:window-height="723" id="namedview2987" showgrid="false" inkscape:zoom="1.0941834" inkscape:cx="491.82728" inkscape:cy="244.79355" inkscape:window-x="0" inkscape:window-y="24" inkscape:window-maximized="1" inkscape:current-layer="svg2985"/>
  <path style="fill:none;stroke:#f01351;stroke-width:5;stroke-linecap:butt;stroke-linejoin:miter;stroke-miterlimit:4;stroke-opacity:1;stroke-dasharray:none" d="m 695.494,289.33346 c 0,0 8.41346,12.71883 14.93439,44.68956 8.46092,41.48208 35.76982,38.75064 35.76982,38.75064" id="path3785" inkscape:connector-curvature="0" sodipodi:nodetypes="csc"/>
  <path style="fill:#ad3d00;fill-opacity:1;stroke:#000000;stroke-width:1px;stroke-linecap:butt;stroke-linejoin:miter;stroke-opacity:1" d="m 295.90454,286.69434 c 0,0 22.83493,70.60292 71.67739,93.70982 9.72353,4.60011 10.15274,5.0896 20.90207,13.00984 -4.71572,-11.66312 -3.46194,-8.4609 -6.47226,-19.59349 16.81198,6.486 24.11851,15.87813 43.94026,17.62149 -19.53394,-12.28936 -18.14859,-18.97053 8.44426,-9.80979 -5.90306,-10.19416 -25.89029,-16.47776 -39.44,-22.17195 -14.19896,-5.96704 -24.15665,-13.24051 -33.34729,-29.15026 13.4137,-55.59801 23.08165,-54.28021 23.08165,-54.28021" id="path2999" inkscape:connector-curvature="0" sodipodi:nodetypes="csccccscc"/>
  <path style="fill:#ad3d00;fill-opacity:1;stroke:#000000;stroke-width:1px;stroke-linecap:butt;stroke-linejoin:miter;stroke-opacity:1" d="m 507.12266,269.22969 c 0,0 -1.09406,14.4818 1.25486,29.56451 2.57197,16.51498 19.76641,30.15853 34.62837,37.99576 10.91269,5.75464 18.0385,5.93643 42.67811,25.07204 -32.38464,-6.55859 -22.25174,2.56681 -8.874,11.832 -3.97586,2.64049 -29.02337,-9.47377 -42.398,-18.734 -0.63147,15.95004 6.39936,13.16442 8.16811,20.42214 C 496.81621,352.20618 432.14306,271.65637 432.14306,271.65637" id="path3003" inkscape:connector-curvature="0" sodipodi:nodetypes="cssccccc"/>
  <path style="fill:#af3e00;fill-opacity:1;stroke:#000000;stroke-width:1px;stroke-linecap:butt;stroke-linejoin:miter;stroke-opacity:1" d="M 547.26042,206.23373 C 525.63822,133.27941 546.68376,119.79169 563.992,93.67 c 17.78331,-26.83866 25.63353,-20.12465 25.636,-10.846 0.0114,43.05298 -16.74493,59.69266 -26.622,109.446 17.41415,-41.06835 28.40732,-68.95477 46.342,-101.558 18.55547,32.23887 -7.85055,78.53928 -19.72,87.754 -4.76861,22.0895 33.5662,43.06898 55.216,59.16 22.60529,16.80117 41.23097,25.74251 60.146,45.356 -13.29145,24.34509 -57.12462,9.02696 -80.852,-4.93 -63.46824,-37.3334 -107.4738,-15.44439 -116.348,-8.874 -89.3329,5.94884 -158.87058,-3.23903 -265.234,54.23 -35.48296,19.17173 -50.24507,41.62579 -103.53,56.202 -14.72352,4.4473 -70.889538,11.42414 -104.516,10.846 35.913398,-16.63566 79.42796,-24.67208 116.348,-43.384 40.47888,-20.51562 46.44159,-101.76467 52.258,-125.222 16.51246,-66.59404 46.85997,-85.21655 88.74,-101.558 51.17517,-19.96838 99.5909,-41.816617 163.82812,17.86209 37.82175,35.13778 69.65497,37.18125 86.60827,48.20752" id="path2995" inkscape:connector-curvature="0" sodipodi:nodetypes="csscccscscsccssasc"/>
  <path style="fill:#ad3d00;fill-opacity:1;stroke:#000000;stroke-width:1px;stroke-linecap:butt;stroke-linejoin:miter;stroke-opacity:1" d="m 233.682,222.836 c 0,0 19.85566,22.95361 13.804,88.74 -3.27613,35.61416 3.08082,54.67723 21.43897,70.992 15.4702,13.74825 17.67462,16.57748 58.60375,39.18697 -3.59568,-11.30382 -10.70538,-22.17992 -5.53646,-18.00102 10.50908,0.54079 27.04771,18.29578 41.10877,16.71179 -3.48543,-2.38783 -32.29364,-22.9459 7.76148,-12.56497 -16.96353,-16.69705 -24.60661,-14.53229 -39.13677,-22.50128 -15.88566,-8.71242 -20.18982,-12.1315 -29.92619,-24.8961 1.10963,-16.7086 -0.56008,-14.31466 2.87445,-27.23539 48.47906,-85.22703 15.776,-124.236 15.776,-124.236" id="path2997" inkscape:connector-curvature="0" sodipodi:nodetypes="cssccccsccc"/>
  <path style="fill:#ad3d00;stroke:#000000;stroke-width:1px;stroke-linecap:butt;stroke-linejoin:miter;stroke-opacity:1;fill-opacity:1" d="m 365.806,195.228 c 0,0 15.58766,30.64862 20.706,81.838 4.29459,42.95097 27.25406,58.13796 47.33175,74.93975 17.23699,21.81465 66.47654,53.09832 66.47654,53.09832 0,0 -7.86348,-12.90773 -7.04018,-23.80592 5.95526,10.30728 25.47343,16.03671 39.15989,20.00385 -21.73966,-18.01204 -7.15346,-14.72272 9.86,-12.818 -15.61095,-13.13641 -28.04867,-14.55173 -42.398,-22.678 -28.3978,-16.08217 -29.46869,-30.27956 -23.664,-48.314 9.38935,-29.17151 20.61224,-45.41279 25.20272,-67.18243 C 509.5696,211.75961 492.014,194.242 492.014,194.242" id="path3001" inkscape:connector-curvature="0" sodipodi:nodetypes="sscccccssss"/>
  <path style="fill:none;stroke:#000000;stroke-width:1px;stroke-linecap:butt;stroke-linejoin:miter;stroke-opacity:1" d="m 303.39908,407.91074 c 0,0 7.04,-8.4056 17.18975,-6.8759 -1.87472,-6.9537 12.89231,-15.47078 12.89231,-15.47078" id="path3773" inkscape:connector-curvature="0" sodipodi:nodetypes="ccc"/>
  <path style="fill:none;stroke:#000000;stroke-width:1px;stroke-linecap:butt;stroke-linejoin:miter;stroke-opacity:1" d="m 366.57141,379.9774 c 0,0 11.48807,-8.74634 16.33026,-6.44616 -0.64991,-8.79926 13.32206,-14.18154 13.32206,-14.18154" id="path3775" inkscape:connector-curvature="0" sodipodi:nodetypes="ccc"/>
  <path style="fill:none;stroke:#000000;stroke-width:1px;stroke-linecap:butt;stroke-linejoin:miter;stroke-opacity:1" d="m 474.36846,387.06896 c 0,0 8.56365,-8.21271 18.99163,-5.9085 -0.739,-9.01082 8.01868,-15.1933 8.01868,-15.1933" id="path3777" inkscape:connector-curvature="0" sodipodi:nodetypes="ccc"/>
  <path style="fill:none;stroke:#000000;stroke-width:1px;stroke-linecap:butt;stroke-linejoin:miter;stroke-opacity:1" d="m 521.21446,362.16884 c 0,0 8.08578,-11.52072 13.50515,-8.01868 0.37084,-10.84957 10.55091,-16.03737 10.55091,-16.03737" id="path3779" inkscape:connector-curvature="0" sodipodi:nodetypes="ccc"/>
  <path sodipodi:type="arc" style="fill:#ff9c00;fill-opacity:0.38983053;stroke:#000000;stroke-width:1;stroke-linecap:round;stroke-linejoin:round;stroke-miterlimit:4;stroke-opacity:1;stroke-dasharray:none;stroke-dashoffset:0" id="path3781" sodipodi:cx="596.1637" sodipodi:cy="223.23593" sodipodi:rx="10.929667" sodipodi:ry="6.4584398" d="m 607.09336,223.23593 a 10.929667,6.4584398 0 1 1 -21.85933,0 10.929667,6.4584398 0 1 1 21.85933,0 z" transform="translate(2,4)"/>
  <path style="fill:none;stroke:#000000;stroke-width:1px;stroke-linecap:butt;stroke-linejoin:miter;stroke-opacity:1" d="m 675.68569,295.27238 c 0,0 0.91658,-10.04244 3.47762,-14.05374 4.25997,-6.6723 12.40787,-10.54871 12.40787,-10.54871" id="path3783" inkscape:connector-curvature="0" sodipodi:nodetypes="csc"/>
  <path style="fill:none;stroke:#000000;stroke-width:1px;stroke-linecap:butt;stroke-linejoin:miter;stroke-opacity:1" d="M 619.12913,294.04133 632.92711,282.3555" id="path3787" inkscape:connector-curvature="0" sodipodi:nodetypes="cc"/>
  <path style="fill:none;stroke:#000000;stroke-width:1px;stroke-linecap:butt;stroke-linejoin:miter;stroke-opacity:1" d="m 635.21644,283.9007 -8.41346,8.04228" id="path3789" inkscape:connector-curvature="0"/>
  <path style="fill:none;stroke:#000000;stroke-width:1px;stroke-linecap:butt;stroke-linejoin:miter;stroke-opacity:1" d="M 643.38245,287.36507 631.3809,300.10899" id="path3793" inkscape:connector-curvature="0"/>
  <path style="fill:none;stroke:#000000;stroke-width:1px;stroke-linecap:butt;stroke-linejoin:miter;stroke-opacity:1" d="m 639.42318,297.51072 7.42364,-8.53719" id="path3795" inkscape:connector-curvature="0"/>
  <path style="fill:none;stroke:#000000;stroke-width:1px;stroke-linecap:butt;stroke-linejoin:miter;stroke-opacity:1" d="m 650.18746,290.2108 -7.05246,8.41346" id="path3797" inkscape:connector-curvature="0"/>
  <path style="fill:none;stroke:#000000;stroke-width:1px;stroke-linecap:butt;stroke-linejoin:miter;stroke-opacity:1" d="M 651.67219,290.58198 646.10446,304.192" id="path3799" inkscape:connector-curvature="0"/>
  <path style="fill:none;stroke:#000000;stroke-width:1px;stroke-linecap:butt;stroke-linejoin:miter;stroke-opacity:1" d="m 650.18746,310.74955 7.79483,-18.0642" id="path3801" inkscape:connector-curvature="0"/>
  <path style="fill:none;stroke:#000000;stroke-width:1px;stroke-linecap:butt;stroke-linejoin:miter;stroke-opacity:1" d="m 662.18902,293.67517 -5.93892,22.64211" id="path3803" inkscape:connector-curvature="0"/>
  <path style="fill:none;stroke:#000000;stroke-width:1px;stroke-linecap:butt;stroke-linejoin:miter;stroke-opacity:1" d="m 663.67375,294.04635 4.083,21.15738" id="path3805" inkscape:connector-curvature="0"/>
  <path style="fill:none;stroke:#000000;stroke-width:1px;stroke-linecap:butt;stroke-linejoin:miter;stroke-opacity:1" d="m 666.51948,294.66499 8.28973,22.76584" id="path3807" inkscape:connector-curvature="0"/>
  <path style="fill:none;stroke:#000000;stroke-width:1px;stroke-linecap:butt;stroke-linejoin:miter;stroke-opacity:1" d="m 670.10757,295.03617 7.91855,16.33201" id="path3809" inkscape:connector-curvature="0"/>
  <g id="g3864" opacity="0" onmouseover="setAttribute('opacity','1')" onmouseout="setAttribute('opacity','0')">
    <path sodipodi:nodetypes="cscsc" inkscape:connector-curvature="0" id="path2995-1" d="m 590.01703,178.42394 c -4.76861,22.0895 33.5662,43.06898 55.216,59.16 22.60529,16.80117 41.23097,25.74251 60.146,45.356 -13.29145,24.34509 -57.12462,9.02696 -80.852,-4.93 -63.46824,-37.3334 -107.4738,-15.44439 -116.348,-8.874" style="fill:#000bf4;fill-opacity:0.45909095;stroke:#000000;stroke-width:1px;stroke-linecap:butt;stroke-linejoin:miter;stroke-opacity:1"/>
    <text sodipodi:linespacing="125%" id="text3835" y="178.61029" x="615.9845" style="font-size:20px;font-style:normal;font-weight:normal;line-height:125%;letter-spacing:0px;word-spacing:0px;fill:#000000;fill-opacity:1;stroke:none;font-family:Bitstream Vera Sans" xml:space="preserve"><tspan y="178.61029" x="615.9845" id="tspan3837" sodipodi:role="line">Long, narrow,</tspan><tspan id="tspan3839" y="203.61029" x="615.9845" sodipodi:role="line">pointed snout</tspan></text>
  </g>
</svg>
